<?xml version="1.0" encoding="iso-8859-1"?>
<!-- Uploaded to: SVG Repo, www.svgrepo.com, Generator: SVG Repo Mixer Tools -->
<svg fill="#000000" height="800px" width="800px" version="1.1" id="Layer_1" xmlns="http://www.w3.org/2000/svg" xmlns:xlink="http://www.w3.org/1999/xlink" 
	 viewBox="0 0 511.997 511.997" xml:space="preserve">
<g>
	<g>
		<path d="M369.279,151.751c-12.922,0-24.719,4.898-33.643,12.931c-7.941-7.149-18.164-11.801-29.426-12.741l13.435-94.51
			c1.892-13.312-1.511-26.564-9.587-37.314c-8.075-10.752-19.853-17.715-33.165-19.606c-13.313-1.893-26.565,1.513-37.315,9.588
			c-10.752,8.075-17.715,19.853-19.606,33.165l-13.705,96.415l-13.706-96.416c-1.892-13.312-8.855-25.09-19.606-33.165
			c-10.751-8.075-24.005-11.479-37.314-9.588c-13.312,1.892-25.09,8.855-33.165,19.606c-8.075,10.751-11.48,24.003-9.588,37.314
			l26.455,186.108c-14.601,13.403-23.296,32.494-23.296,53.129v53.545c0,89.208,72.577,161.785,161.786,161.785
			s161.785-72.576,161.785-161.785v-46.61V202.088C419.618,174.333,397.037,151.751,369.279,151.751z M301.993,185.144
			c9.346-0.002,16.949,7.601,16.949,16.946v101.514c0,9.345-7.603,16.947-16.948,16.947s-16.947-7.602-16.947-16.947V278.7
			c22.781-11.975,33.1-39.656,23.026-63.868c-4.114-9.886-11.04-17.76-19.461-23.102
			C291.716,187.732,296.553,185.144,301.993,185.144z M253.03,47.962c0.637-4.481,2.982-8.447,6.6-11.166
			c3.621-2.718,8.083-3.862,12.564-3.228c4.481,0.637,8.447,2.982,11.165,6.6c2.718,3.62,3.864,8.081,3.227,12.563L270.988,162.48
			c-7.168,5.624-12.778,13.14-16.064,21.799c-4.257,0.569-8.51,1.687-12.66,3.414l-9.667,4.021L253.03,47.962z M129.175,40.169
			c2.718-3.618,6.684-5.964,11.166-6.6c4.48-0.639,8.943,0.509,12.563,3.228c3.62,2.718,5.964,6.684,6.601,11.166l23.374,164.436
			l-32.324,13.448L125.946,52.732C125.31,48.25,126.456,43.788,129.175,40.169z M257.833,478.608
			c-70.797,0-128.395-57.597-128.395-128.394V296.67c0-15.717,9.376-29.774,23.888-35.811l101.763-42.337
			c8.626-3.587,18.568,0.51,22.157,9.137c3.591,8.627-0.51,18.568-9.137,22.157l-86.76,36.096v73.517h33.391v-51.243l36.917-15.359
			v10.78c0,27.757,22.581,50.338,50.338,50.338c12.923,0,24.72-4.898,33.644-12.931c8.922,8.033,20.719,12.931,33.643,12.931
			c5.941,0,11.641-1.042,16.938-2.94C385.791,421.436,328.367,478.608,257.833,478.608z M386.227,303.603
			c0,9.345-7.603,16.947-16.948,16.947s-16.947-7.602-16.947-16.947V202.089c0-9.345,7.602-16.947,16.947-16.947
			s16.948,7.603,16.948,16.947V303.603z"/>
	</g>
</g>
</svg>